<mxfile host="app.diagrams.net" modified="2024-07-18T07:10:55.145Z" agent="Mozilla/5.0 (X11; Linux x86_64) AppleWebKit/537.36 (KHTML, like Gecko) Chrome/126.0.0.0 Safari/537.36" version="24.7.1" etag="9_3pboWab3TYJsk4MKIV" type="github">
  <diagram name="PÃ¡gina-1" id="lYD8av8Drol120BXOfZP">
    <mxGraphModel>
      <root>
        <mxCell id="0" />
        <mxCell id="1" parent="0" />
      </root>
    </mxGraphModel>
  </diagram>
</mxfile>
